<?xml version="1.0" encoding="UTF-8"?>
<svg width="32pt" height="32pt" version="1.1" viewBox="0 0 32 32" xmlns="http://www.w3.org/2000/svg">
    <path d="m31.832 13.238c-0.10938-0.14453-0.25391-0.23047-0.4375-0.25781l-3.8125-0.58594c-0.20703-0.66406-0.49219-1.3438-0.85156-2.0391 0.25-0.34766 0.625-0.83984 1.125-1.4688 0.5-0.63281 0.85156-1.0938 1.0625-1.3867 0.10938-0.15234 0.16406-0.3125 0.16406-0.48047 0-0.19141-0.046875-0.34766-0.14453-0.45703-0.5-0.70703-1.6445-1.8906-3.4375-3.543-0.16797-0.13672-0.33984-0.20703-0.51953-0.20703-0.21094 0-0.375 0.0625-0.5 0.1875l-2.9609 2.2305c-0.56641-0.29297-1.1914-0.55078-1.875-0.77344l-0.58203-3.832c-0.015625-0.17969-0.09375-0.32812-0.23828-0.44922-0.14844-0.11719-0.31641-0.17578-0.51172-0.17578h-4.625c-0.40234 0-0.65234 0.19531-0.75 0.58203-0.17969 0.69531-0.38281 1.9883-0.60547 3.875-0.65234 0.21094-1.2852 0.47266-1.8945 0.79297l-2.875-2.2305c-0.17969-0.13672-0.35938-0.20703-0.54297-0.20703-0.30469 0-0.96094 0.49609-1.9688 1.4883-1.0039 0.99609-1.6875 1.7422-2.0508 2.2422-0.125 0.17969-0.1875 0.33984-0.1875 0.47656 0 0.16797 0.070312 0.33594 0.20703 0.5 0.93359 1.125 1.6758 2.0859 2.2305 2.875-0.34766 0.64062-0.61719 1.2773-0.8125 1.918l-3.875 0.58203c-0.15234 0.027344-0.28516 0.12109-0.39453 0.27344-0.11328 0.15234-0.16797 0.3125-0.16797 0.47656v4.625c0 0.18359 0.054688 0.34375 0.16797 0.49219 0.10938 0.14453 0.25391 0.23047 0.4375 0.25781l3.8125 0.5625c0.19141 0.68359 0.47656 1.3711 0.85156 2.0625-0.25 0.34766-0.625 0.83984-1.125 1.4688-0.5 0.63281-0.85156 1.0938-1.0625 1.3867-0.10938 0.15234-0.16406 0.3125-0.16406 0.48047 0 0.17969 0.046875 0.33984 0.14453 0.47656 0.54297 0.75 1.6875 1.918 3.4375 3.5 0.15234 0.15234 0.32812 0.23047 0.51953 0.23047 0.21094 0 0.38281-0.0625 0.52344-0.1875l2.9375-2.2305c0.57031 0.29297 1.1953 0.55078 1.875 0.77344l0.58203 3.832c0.015625 0.17969 0.09375 0.32812 0.23828 0.44922 0.14844 0.11719 0.31641 0.17578 0.51172 0.17578h4.625c0.40234 0 0.65234-0.19531 0.75-0.58203 0.17969-0.69531 0.38281-1.9883 0.60547-3.875 0.65234-0.21094 1.2852-0.47266 1.8945-0.79297l2.875 2.25c0.19531 0.125 0.375 0.1875 0.54297 0.1875 0.30469 0 0.95703-0.49219 1.957-1.4805 1-0.98438 1.6875-1.7344 2.0625-2.25 0.125-0.13672 0.1875-0.29688 0.1875-0.47656 0-0.18359-0.070312-0.35547-0.20703-0.52344-1-1.2227-1.7422-2.1797-2.2305-2.875 0.27734-0.51172 0.55078-1.1445 0.8125-1.8945l3.8555-0.58203c0.16406-0.027344 0.30469-0.12109 0.41406-0.27344 0.11328-0.15234 0.16797-0.3125 0.16797-0.47656v-4.625c0-0.18359-0.054688-0.34375-0.16797-0.49219zm-12.062 6.5312c-1.0391 1.043-2.2969 1.5625-3.7695 1.5625s-2.7305-0.51953-3.7695-1.5625c-1.043-1.0391-1.5625-2.2969-1.5625-3.7695s0.51953-2.7305 1.5625-3.7695c1.0391-1.043 2.2969-1.5625 3.7695-1.5625s2.7305 0.51953 3.7695 1.5625c1.043 1.0391 1.5625 2.2969 1.5625 3.7695s-0.51953 2.7305-1.5625 3.7695z"
          fill="#ededed"/>
</svg>
